  0
SECTION
  2
HEADER
  9
$ACADVER
  1
AC1014
  9
$HANDSEED
  5
FFFF
  9
$MEASUREMENT
 70
     1
  0
ENDSEC
  0
SECTION
  2
TABLES
  0
TABLE
  2
VPORT
  5
8
330
0
100
AcDbSymbolTable
 70
     4
  0
VPORT
  5
2E
330
8
100
AcDbSymbolTableRecord
100
AcDbViewportTableRecord
  2
*ACTIVE
 70
     0
 10
0.0
 20
0.0
 11
1.0
 21
1.0
 12
210.0
 22
148.5
 13
0.0
 23
0.0
 14
10.0
 24
10.0
 15
10.0
 25
10.0
 16
0.0
 26
0.0
 36
1.0
 17
0.0
 27
0.0
 37
0.0
 40
341.0
 41
1.24
 42
50.0
 43
0.0
 44
0.0
 50
0.0
 51
0.0
 71
     0
 72
   100
 73
     1
 74
     3
 75
     0
 76
     0
 77
     0
 78
     0
  0
ENDTAB
  0
TABLE
  2
LTYPE
  5
5
330
0
100
AcDbSymbolTable
 70
     1
  0
LTYPE
  5
14
330
5
100
AcDbSymbolTableRecord
100
AcDbLinetypeTableRecord
  2
BYBLOCK
 70
     0
  3

 72
    65
 73
     0
 40
0.0
  0
LTYPE
  5
15
330
5
100
AcDbSymbolTableRecord
100
AcDbLinetypeTableRecord
  2
BYLAYER
 70
     0
  3

 72
    65
 73
     0
 40
0.0
  0
LTYPE
  5
16
330
5
100
AcDbSymbolTableRecord
100
AcDbLinetypeTableRecord
  2
CONTINUOUS
 70
     0
  3
Solid line
 72
    65
 73
     0
 40
0.0
  0
ENDTAB
  0
TABLE
  2
LAYER
  5
2
100
AcDbSymbolTable
 70
3
  0
LAYER
  5
50
100
AcDbSymbolTableRecord
100
AcDbLayerTableRecord
  2
0
 70
0
  6
CONTINUOUS
  0
LAYER
  5
51
100
AcDbSymbolTableRecord
100
AcDbLayerTableRecord
  2
Layer_1
 70
0
  6
CONTINUOUS
  0
LAYER
  5
52
100
AcDbSymbolTableRecord
100
AcDbLayerTableRecord
  2
Layer
 70
0
  6
CONTINUOUS
  0
ENDTAB
  0
TABLE
  2
STYLE
  5
3
330
0
100
AcDbSymbolTable
 70
     1
  0
STYLE
  5
11
330
3
100
AcDbSymbolTableRecord
100
AcDbTextStyleTableRecord
  2
STANDARD
 70
     0
 40
0.0
 41
1.0
 50
0.0
 71
     0
 42
2.5
  3
txt
  4

  0
ENDTAB
  0
TABLE
  2
VIEW
  5
6
330
0
100
AcDbSymbolTable
 70
     0
  0
ENDTAB
  0
TABLE
  2
UCS
  5
7
330
0
100
AcDbSymbolTable
 70
     0
  0
ENDTAB
  0
TABLE
  2
APPID
  5
9
330
0
100
AcDbSymbolTable
 70
     2
  0
APPID
  5
12
330
9
100
AcDbSymbolTableRecord
100
AcDbRegAppTableRecord
  2
ACAD
 70
     0
  0
ENDTAB
  0
TABLE
  2
DIMSTYLE
  5
A
330
0
100
AcDbSymbolTable
 70
     1
  0
DIMSTYLE
105
27
330
A
100
AcDbSymbolTableRecord
100
AcDbDimStyleTableRecord
  2
ISO-25
 70
     0
  3

  4

  5

  6

  7

 40
1.0
 41
2.5
 42
0.625
 43
3.75
 44
1.25
 45
0.0
 46
0.0
 47
0.0
 48
0.0
140
2.5
141
2.5
142
0.0
143
0.03937007874016
144
1.0
145
0.0
146
1.0
147
0.625
 71
     0
 72
     0
 73
     0
 74
     0
 75
     0
 76
     0
 77
     1
 78
     8
170
     0
171
     3
172
     1
173
     0
174
     0
175
     0
176
     0
177
     0
178
     0
270
     2
271
     2
272
     2
273
     2
274
     3
340
11
275
     0
280
     0
281
     0
282
     0
283
     0
284
     8
285
     0
286
     0
287
     3
288
     0
  0
ENDTAB
  0
TABLE
  2
BLOCK_RECORD
  5
1
330
0
100
AcDbSymbolTable
 70
     1
  0
BLOCK_RECORD
  5
1F
330
1
100
AcDbSymbolTableRecord
100
AcDbBlockTableRecord
  2
*MODEL_SPACE
  0
BLOCK_RECORD
  5
1B
330
1
100
AcDbSymbolTableRecord
100
AcDbBlockTableRecord
  2
*PAPER_SPACE
  0
ENDTAB
  0
ENDSEC
  0
SECTION
  2
BLOCKS
  0
BLOCK
  5
20
330
1F
100
AcDbEntity
  8
0
100
AcDbBlockBegin
  2
*MODEL_SPACE
 70
     0
 10
0.0
 20
0.0
 30
0.0
  3
*MODEL_SPACE
  1

  0
ENDBLK
  5
21
330
1F
100
AcDbEntity
  8
0
100
AcDbBlockEnd
  0
BLOCK
  5
1C
330
1B
100
AcDbEntity
 67
     1
  8
0
100
AcDbBlockBegin
  2
*PAPER_SPACE
  1

  0
ENDBLK
  5
1D
330
1B
100
AcDbEntity
 67
     1
  8
0
100
AcDbBlockEnd
  0
ENDSEC
  0
SECTION
  2
ENTITIES
  0
LINE
  5
100
100
AcDbEntity
  8
Layer_1
 62
7
100
AcDbLine
 10
27.653491
 20
284.627115
 30
0.0
 11
207.653495
 21
284.627115
 31
0.0
  0
LINE
  5
101
100
AcDbEntity
  8
Layer_1
 62
7
100
AcDbLine
 10
207.653495
 20
284.627115
 30
0.0
 11
207.653495
 21
104.627111
 31
0.0
  0
LINE
  5
102
100
AcDbEntity
  8
Layer_1
 62
7
100
AcDbLine
 10
207.653495
 20
104.627111
 30
0.0
 11
27.653491
 21
104.627111
 31
0.0
  0
LINE
  5
103
100
AcDbEntity
  8
Layer_1
 62
7
100
AcDbLine
 10
27.653491
 20
104.627111
 30
0.0
 11
27.653491
 21
284.627115
 31
0.0
  0
SPLINE
  5
104
100
AcDbEntity
  8
Layer
 62
7
100
AcDbSpline
 70
0
 71
3
 72
10
 73
6
 74
4
 40
0.000000
 40
0.000000
 40
0.000000
 40
0.000000
 40
2.228179
 40
4.382632
 40
6.557259
 40
6.557259
 40
6.557259
 40
6.557259
 10
117.596164
 20
241.625934
 30
0.0
 10
116.850611
 20
241.526382
 30
0.0
 10
115.384174
 20
241.330570
 30
0.0
 10
113.564434
 20
239.888153
 30
0.0
 10
113.025177
 20
238.532299
 30
0.0
 10
112.754291
 20
237.851212
 30
0.0
 11
117.596164
 21
241.625934
 31
0.0
 11
115.424174
 21
241.128698
 31
0.0
 11
113.734025
 21
239.792635
 31
0.0
 11
112.754291
 21
237.851212
 31
0.0
  0
SPLINE
  5
105
100
AcDbEntity
  8
Layer
 62
7
100
AcDbSpline
 70
0
 71
3
 72
13
 73
9
 74
7
 40
0.000000
 40
0.000000
 40
0.000000
 40
0.000000
 40
20.978295
 40
41.555739
 40
62.804256
 40
84.069940
 40
104.664766
 40
125.662196
 40
125.662196
 40
125.662196
 40
125.662196
 10
112.754291
 20
237.851212
 30
0.0
 10
105.853157
 20
236.049499
 30
0.0
 10
92.182755
 20
232.480500
 30
0.0
 10
77.704962
 20
215.748200
 30
0.0
 10
72.344918
 20
194.621378
 30
0.0
 10
77.710814
 20
173.488664
 30
0.0
 10
92.210835
 20
156.748031
 30
0.0
 10
105.897589
 20
153.190298
 30
0.0
 10
112.807208
 20
151.394212
 30
0.0
 11
112.754291
 21
237.851212
 31
0.0
 11
93.093432
 21
230.534146
 31
0.0
 11
79.333318
 21
215.234130
 31
0.0
 11
74.151583
 21
194.627115
 31
0.0
 11
79.341384
 21
174.004426
 31
0.0
 11
93.121323
 21
158.698868
 31
0.0
 11
112.807208
 21
151.394212
 31
0.0
  0
SPLINE
  5
106
100
AcDbEntity
  8
Layer
 62
7
100
AcDbSpline
 70
0
 71
3
 72
13
 73
9
 74
7
 40
0.000000
 40
0.000000
 40
0.000000
 40
0.000000
 40
2.172601
 40
4.324423
 40
6.552092
 40
8.781991
 40
10.937151
 40
13.110784
 40
13.110784
 40
13.110784
 40
13.110784
 10
112.807208
 20
151.394212
 30
0.0
 10
113.077998
 20
150.710031
 30
0.0
 10
113.616987
 20
149.348212
 30
0.0
 10
115.438279
 20
147.965521
 30
0.0
 10
117.649925
 20
147.456644
 30
0.0
 10
119.862104
 20
147.966078
 30
0.0
 10
121.687481
 20
149.347071
 30
0.0
 10
122.228241
 20
150.709893
 30
0.0
 10
122.499775
 20
151.394212
 30
0.0
 11
112.807208
 21
151.394212
 31
0.0
 11
113.786942
 21
149.455059
 31
0.0
 11
115.477091
 21
148.123242
 31
0.0
 11
117.649080
 21
147.628295
 31
0.0
 11
119.823356
 21
148.123242
 31
0.0
 11
121.517752
 21
149.455059
 31
0.0
 11
122.499775
 21
151.394212
 31
0.0
  0
SPLINE
  5
107
100
AcDbEntity
  8
Layer
 62
7
100
AcDbSpline
 70
0
 71
3
 72
13
 73
9
 74
7
 40
0.000000
 40
0.000000
 40
0.000000
 40
0.000000
 40
20.997099
 40
41.592095
 40
62.857081
 40
84.139545
 40
104.751158
 40
125.769688
 40
125.769688
 40
125.769688
 40
125.769688
 10
122.499775
 20
151.394212
 30
0.0
 10
129.409117
 20
153.190717
 30
0.0
 10
143.095485
 20
156.749322
 30
0.0
 10
157.595527
 20
173.489160
 30
0.0
 10
162.965398
 20
194.632819
 30
0.0
 10
157.589357
 20
215.782926
 30
0.0
 10
143.061287
 20
232.527473
 30
0.0
 10
129.357106
 20
236.070966
 30
0.0
 10
122.438039
 20
237.860031
 30
0.0
 11
122.499775
 21
151.394212
 31
0.0
 11
142.184979
 21
158.699750
 31
0.0
 11
155.965259
 21
174.005232
 31
0.0
 11
161.155400
 21
194.627115
 31
0.0
 11
155.955859
 21
215.264655
 31
0.0
 11
142.152460
 21
230.571672
 31
0.0
 11
122.438039
 21
237.860031
 31
0.0
  0
LINE
  5
108
100
AcDbEntity
  8
Layer
 62
7
100
AcDbLine
 10
117.596164
 20
241.625934
 30
0.0
 11
117.596164
 21
241.625934
 31
0.0
  0
SPLINE
  5
109
100
AcDbEntity
  8
Layer
 62
7
100
AcDbSpline
 70
0
 71
3
 72
10
 73
6
 74
4
 40
0.000000
 40
0.000000
 40
0.000000
 40
0.000000
 40
2.171595
 40
4.324167
 40
6.549670
 40
6.549670
 40
6.549670
 40
6.549670
 10
122.438039
 20
237.860031
 30
0.0
 10
122.166061
 20
238.539539
 30
0.0
 10
121.624489
 20
239.892602
 30
0.0
 10
119.805602
 20
241.330972
 30
0.0
 10
118.340777
 20
241.526527
 30
0.0
 10
117.596164
 20
241.625934
 30
0.0
 11
122.438039
 21
237.860031
 31
0.0
 11
121.455834
 21
239.796806
 31
0.0
 11
119.765661
 21
241.129804
 31
0.0
 11
117.596164
 21
241.625934
 31
0.0
  0
ENDSEC
  0
SECTION
  2
OBJECTS
  0
DICTIONARY
  5
C
330
0
100
AcDbDictionary
  3
ACAD_GROUP
350
D
  3
ACAD_MLINESTYLE
350
17
  0
DICTIONARY
  5
D
330
C
100
AcDbDictionary
  0
DICTIONARY
  5
1A
330
C
100
AcDbDictionary
  0
DICTIONARY
  5
17
330
C
100
AcDbDictionary
  3
STANDARD
350
18
  0
DICTIONARY
  5
19
330
C
100
AcDbDictionary
  0
ENDSEC
  0
EOF
